<svg width="14" height="22" xmlns="http://www.w3.org/2000/svg">

 <g>
  <title>background</title>
  <rect fill="none" id="canvas_background" height="402" width="582" y="-1" x="-1"/>
 </g>
 <g>
  <title>Layer 1</title>
  <path id="svg_1" fill="#ffffff" d="m3.37905,1.66859l3.68953,-0.57978c3.22062,-0.50609 4.83092,-0.75914 5.88112,0.13898c1.0503,0.89812 1.0503,2.52817 1.0503,5.78828l0,2.98352l-5.91938,0l2.70028,-3.37531l-1.56177,-1.24939l-4,5.00001l-0.49975,0.6247l0.49975,0.6247l4,5l1.56177,-1.2494l-2.70028,-3.3753l5.91938,0l0,2.9835c0,3.2601 0,4.8902 -1.0503,5.7883c-1.0502,0.8981 -2.6605,0.6451 -5.88113,0.139l-3.68952,-0.5798c-1.61273,-0.2535 -2.4191,-0.3802 -2.89907,-0.9415c-0.47998,-0.5612 -0.47998,-1.3775 -0.47998,-3.01l0,-10.759c0,-1.63252 0,-2.44878 0.47998,-3.01007c0.47997,-0.56129 1.28634,-0.68801 2.89907,-0.94144z" clip-rule="evenodd" fill-rule="evenodd"/>
 </g>
</svg>