<svg width="17" height="18" viewBox="0 0 17 18" fill="none" xmlns="http://www.w3.org/2000/svg">
<path d="M9.00016 16.6841C13.1964 16.6841 16.6842 13.2036 16.6842 8.99999C16.6842 4.80374 13.1887 1.31592 8.99244 1.31592C4.78912 1.31592 1.31641 4.80374 1.31641 8.99999C1.31641 13.2036 4.79651 16.6841 9.00016 16.6841ZM7.96066 12.8645C7.7048 12.8645 7.50873 12.7517 7.29048 12.4955L5.12083 9.81353C5.00769 9.67049 4.93987 9.48952 4.93987 9.32399C4.93987 8.96977 5.21855 8.69881 5.54994 8.69881C5.76851 8.69881 5.94948 8.78142 6.13012 9.0151L7.93076 11.3429L11.4337 5.73074C11.577 5.49706 11.7728 5.38392 11.9685 5.38392C12.3003 5.38392 12.6243 5.60249 12.6243 5.9641C12.6243 6.12963 12.5262 6.3106 12.4282 6.46135L8.60094 12.4955C8.43508 12.744 8.22423 12.8645 7.96066 12.8645Z" fill="white"/>
</svg>
