<svg width="38" height="38" viewBox="0 0 38 38" fill="none" xmlns="http://www.w3.org/2000/svg">
<path d="M9.22124 5.75065L18.9999 15.5293L28.7279 5.80132C28.9428 5.5726 29.2016 5.38964 29.489 5.26339C29.7763 5.13715 30.0861 5.07023 30.3999 5.06665C31.0718 5.06665 31.7162 5.33355 32.1912 5.80865C32.6663 6.28374 32.9332 6.9281 32.9332 7.59998C32.9391 7.91058 32.8815 8.2191 32.7639 8.50662C32.6463 8.79414 32.4711 9.05459 32.2492 9.27198L22.3946 19L32.2492 28.8547C32.6668 29.2631 32.9116 29.8163 32.9332 30.4C32.9332 31.0719 32.6663 31.7162 32.1912 32.1913C31.7162 32.6664 31.0718 32.9333 30.3999 32.9333C30.077 32.9467 29.7549 32.8928 29.454 32.7751C29.1531 32.6573 28.8799 32.4783 28.6519 32.2493L18.9999 22.4706L9.24657 32.224C9.03252 32.4451 8.7768 32.6216 8.49418 32.7433C8.21155 32.8651 7.90762 32.9296 7.59991 32.9333C6.92803 32.9333 6.28366 32.6664 5.80857 32.1913C5.33348 31.7162 5.06657 31.0719 5.06657 30.4C5.06067 30.0894 5.11829 29.7809 5.23591 29.4934C5.35354 29.2058 5.52867 28.9454 5.75057 28.728L15.6052 19L5.75057 9.14532C5.33304 8.73684 5.08821 8.18369 5.06657 7.59998C5.06657 6.9281 5.33348 6.28374 5.80857 5.80865C6.28366 5.33355 6.92803 5.06665 7.59991 5.06665C8.20791 5.07425 8.79057 5.31998 9.22124 5.75065Z" fill="#FFA53C"/>
</svg>
