<svg width="19" height="19" viewBox="0 0 19 19" fill="none" xmlns="http://www.w3.org/2000/svg">
<g clip-path="url(#clip0_23_138)">
<path d="M9.49979 17.611C13.9292 17.611 17.6107 13.9372 17.6107 9.5C17.6107 5.07063 13.921 1.38904 9.49164 1.38904C5.0548 1.38904 1.38916 5.07063 1.38916 9.5C1.38916 13.9372 5.06261 17.611 9.49979 17.611ZM8.40254 13.5792C8.13246 13.5792 7.9255 13.4601 7.69512 13.1897L5.40495 10.3587C5.28552 10.2078 5.21393 10.0167 5.21393 9.842C5.21393 9.46811 5.50809 9.18209 5.85789 9.18209C6.08861 9.18209 6.27962 9.26929 6.4703 9.51595L8.37098 11.9731L12.0685 6.04913C12.2198 5.80247 12.4265 5.68304 12.6331 5.68304C12.9832 5.68304 13.3252 5.91375 13.3252 6.29545C13.3252 6.47018 13.2217 6.6612 13.1183 6.82032L9.07839 13.1897C8.90332 13.452 8.68075 13.5792 8.40254 13.5792Z" fill="white"/>
</g>
<defs>
<clipPath id="clip0_23_138">
<rect width="19" height="19" fill="white"/>
</clipPath>
</defs>
</svg>
