<svg width="24" height="29" viewBox="0 0 24 29" fill="none" xmlns="http://www.w3.org/2000/svg">
<path d="M7.22222 10.875V8.45837H22V10.875H7.22222ZM7.22222 15.7084V13.2917H22V15.7084H7.22222ZM7.22222 20.5417V18.125H22V20.5417H7.22222ZM4.05556 10.875C3.75648 10.875 3.50596 10.759 3.304 10.527C3.10204 10.295 3.0007 10.0083 3 9.66671C3 9.32435 3.10133 9.03757 3.304 8.80637C3.50667 8.57518 3.75719 8.45918 4.05556 8.45837C4.35463 8.45837 4.6055 8.57437 4.80817 8.80637C5.01083 9.03837 5.11181 9.32515 5.11111 9.66671C5.11111 10.0091 5.00978 10.2962 4.80711 10.5282C4.60444 10.7602 4.35393 10.8758 4.05556 10.875ZM4.05556 15.7084C3.75648 15.7084 3.50596 15.5924 3.304 15.3604C3.10204 15.1284 3.0007 14.8416 3 14.5C3 14.1577 3.10133 13.8709 3.304 13.6397C3.50667 13.4085 3.75719 13.2925 4.05556 13.2917C4.35463 13.2917 4.6055 13.4077 4.80817 13.6397C5.01083 13.8717 5.11181 14.1585 5.11111 14.5C5.11111 14.8424 5.00978 15.1296 4.80711 15.3616C4.60444 15.5936 4.35393 15.7092 4.05556 15.7084ZM4.05556 20.5417C3.75648 20.5417 3.50596 20.4257 3.304 20.1937C3.10204 19.9617 3.0007 19.6749 3 19.3334C3 18.991 3.10133 18.7042 3.304 18.473C3.50667 18.2418 3.75719 18.1258 4.05556 18.125C4.35463 18.125 4.6055 18.241 4.80817 18.473C5.01083 18.705 5.11181 18.9918 5.11111 19.3334C5.11111 19.6757 5.00978 19.9629 4.80711 20.1949C4.60444 20.4269 4.35393 20.5425 4.05556 20.5417Z" fill="white"/>
</svg>
