<svg width="19" height="19" viewBox="0 0 19 19" fill="none" xmlns="http://www.w3.org/2000/svg">
<rect width="19" height="19" fill="#614EA7"/>
<path d="M15.0417 15.0416H3.95833V6.33329H15.0417M12.6667 0.791626V2.37496H6.33333V0.791626H4.75V2.37496H3.95833C3.07958 2.37496 2.375 3.07954 2.375 3.95829V15.0416C2.375 15.4616 2.54181 15.8643 2.83875 16.1612C3.13568 16.4581 3.53841 16.625 3.95833 16.625H15.0417C15.4616 16.625 15.8643 16.4581 16.1613 16.1612C16.4582 15.8643 16.625 15.4616 16.625 15.0416V3.95829C16.625 3.53837 16.4582 3.13564 16.1613 2.83871C15.8643 2.54177 15.4616 2.37496 15.0417 2.37496H14.25V0.791626M13.4583 9.49996H9.5V13.4583H13.4583V9.49996Z" fill="white"/>
</svg>
