<svg width="19" height="19" viewBox="0 0 19 19" fill="none" xmlns="http://www.w3.org/2000/svg">
<g clip-path="url(#clip0_12_57)">
<path fill-rule="evenodd" clip-rule="evenodd" d="M9.59241 1.58337C8.69392 1.58345 7.80846 1.79839 7.00993 2.21025C6.2114 2.62211 5.52294 3.21896 5.002 3.951C4.48105 4.68303 4.14273 5.52903 4.01525 6.41841C3.88777 7.30778 3.97484 8.21475 4.26919 9.06363C4.56353 9.91251 5.05662 10.6787 5.70732 11.2983C6.35802 11.9178 7.14745 12.3728 8.00975 12.6253C8.87206 12.8777 9.78223 12.9203 10.6643 12.7494C11.5464 12.5786 12.3749 12.1993 13.0806 11.6431L15.5015 14.064C15.6265 14.1847 15.794 14.2515 15.9678 14.25C16.1416 14.2485 16.3079 14.1788 16.4308 14.0559C16.5537 13.933 16.6234 13.7667 16.6249 13.5929C16.6264 13.4191 16.5596 13.2517 16.4388 13.1267L14.0179 10.7058C14.6729 9.87501 15.0807 8.87658 15.1946 7.82481C15.3086 6.77305 15.1242 5.71044 14.6624 4.7586C14.2007 3.80676 13.4802 3.00415 12.5836 2.44261C11.687 1.88107 10.6504 1.5833 9.59241 1.58337ZM5.28357 7.2178C5.28357 6.07507 5.73754 4.97914 6.5456 4.17111C7.35367 3.36307 8.44964 2.90912 9.59241 2.90912C10.7352 2.90912 11.8312 3.36307 12.6392 4.17111C13.4473 4.97914 13.9013 6.07507 13.9013 7.2178C13.9013 8.36054 13.4473 9.45647 12.6392 10.2645C11.8312 11.0725 10.7352 11.5265 9.59241 11.5265C8.44964 11.5265 7.35367 11.0725 6.5456 10.2645C5.73754 9.45647 5.28357 8.36054 5.28357 7.2178Z" fill="white"/>
</g>
<defs>
<clipPath id="clip0_12_57">
<rect width="19" height="19" fill="white"/>
</clipPath>
</defs>
</svg>
