<svg width="25" height="25" viewBox="0 0 25 25" fill="none" xmlns="http://www.w3.org/2000/svg">
<path fill-rule="evenodd" clip-rule="evenodd" d="M14.369 4.96406L17.2547 2.07837C18.588 0.745035 19.2547 0.0783691 20.0831 0.0783691C20.9115 0.0783691 21.5798 0.746671 22.9164 2.08328C24.253 3.41988 24.9213 4.08818 24.9213 4.91661C24.9213 5.74504 24.2547 6.4117 22.9213 7.74503L20.0668 10.5995C17.7095 9.23632 15.7495 7.29106 14.369 4.96406ZM12.9147 6.41835L2.52282 16.8102C2.09776 17.2353 1.88523 17.4478 1.74549 17.7089C1.60576 17.97 1.54681 18.2647 1.42892 18.8542L0.39686 24.0145C0.330338 24.3471 0.297077 24.5134 0.391685 24.608C0.486289 24.7026 0.652585 24.6694 0.985169 24.6029L0.985191 24.6029L0.985208 24.6029L6.14552 23.5708C6.73497 23.4529 7.0297 23.394 7.2908 23.2542C7.55189 23.1145 7.76442 22.902 8.18948 22.4769L18.6088 12.0576C16.3022 10.6302 14.3566 8.69808 12.9147 6.41835Z" fill="#FF974B"/>
</svg>
