<svg width="19" height="19" viewBox="0 0 19 19" fill="none" xmlns="http://www.w3.org/2000/svg">
<g clip-path="url(#clip0_12_48)">
<path d="M9.5 19C14.7467 19 19 14.7467 19 9.5C19 4.25329 14.7467 0 9.5 0C4.25329 0 0 4.25329 0 9.5C0 14.7467 4.25329 19 9.5 19Z" fill="white"/>
<path d="M13.4926 5.9613C12.3758 5.9613 11.2785 6.65903 10.432 7.39264C10.6438 7.62396 10.8458 7.86414 11.0374 8.11253C11.1281 8.23233 11.2606 8.39436 11.4242 8.57803C12.0765 8.00591 12.8434 7.49925 13.4926 7.49925C14.5956 7.49925 15.4929 8.39647 15.4929 9.49953C15.4929 10.6026 14.5956 11.4998 13.4926 11.4998C12.2592 11.4998 10.5982 9.6758 10.1137 9.03614C9.87624 8.72158 7.72766 5.9613 5.50677 5.9613C3.55557 5.9613 1.96802 7.54886 1.96802 9.50005C1.96802 11.4512 3.55557 13.0383 5.50677 13.0383C6.59135 13.0383 7.65641 12.3796 8.49241 11.6692C8.25968 11.4187 8.03866 11.1575 7.83005 10.8865C7.72473 10.7497 7.61489 10.6165 7.50071 10.487C6.86527 11.0317 6.13166 11.4998 5.50677 11.4998C4.40371 11.4998 3.50649 10.6026 3.50649 9.49953C3.50649 8.39647 4.40371 7.49925 5.50677 7.49925C6.74071 7.49925 8.4011 9.32325 8.8856 9.96292C9.1231 10.2775 11.2717 13.0377 13.4926 13.0377C14.4307 13.0368 15.3301 12.6637 15.9934 12.0003C16.6567 11.337 17.0298 10.4376 17.0308 9.49953C17.03 8.56139 16.6569 7.66191 15.9935 6.99855C15.3302 6.33519 14.4307 5.96214 13.4926 5.9613Z" fill="#614EA7"/>
</g>
<defs>
<clipPath id="clip0_12_48">
<rect width="19" height="19" fill="white"/>
</clipPath>
</defs>
</svg>
