<svg width="19" height="19" viewBox="0 0 19 19" fill="none" xmlns="http://www.w3.org/2000/svg">
<path d="M14.2507 0H4.75073C3.49095 0 2.28277 0.625556 1.39198 1.73905C0.501177 2.85255 0.000732422 4.36278 0.000732422 5.9375V19H17.1007C17.6046 19 18.0879 18.7498 18.4442 18.3044C18.8006 17.859 19.0007 17.2549 19.0007 16.625V5.9375C19.0007 4.36278 18.5003 2.85255 17.6095 1.73905C16.7187 0.625556 15.5105 0 14.2507 0ZM7.60073 16.625H1.90073V5.9375C1.90073 4.99267 2.201 4.08653 2.73548 3.41843C3.26996 2.75033 3.99487 2.375 4.75073 2.375C5.5066 2.375 6.23151 2.75033 6.76599 3.41843C7.30047 4.08653 7.60073 4.99267 7.60073 5.9375V16.625ZM16.1507 13.0625H14.2507V10.6875H10.4507V8.3125H16.1507V13.0625ZM6.65073 8.3125H2.85073V5.9375H6.65073V8.3125Z" fill="#F28378"/>
</svg>
