<svg width="25" height="28" viewBox="0 0 25 28" fill="none" xmlns="http://www.w3.org/2000/svg">
<path d="M1 1.5V19.5714H22.7654C23.2893 19.5714 23.5512 19.5714 23.6144 19.4153C23.6777 19.2591 23.4896 19.0769 23.1134 18.7123L14.7131 10.573L14.7131 10.573C14.5738 10.4379 14.5041 10.3704 14.5041 10.2857C14.5041 10.201 14.5738 10.1335 14.7131 9.99845L14.7131 9.99845L23.1134 1.85909C23.4896 1.49457 23.6777 1.31231 23.6144 1.15615C23.5512 1 23.2893 1 22.7654 1H1.5C1.2643 1 1.14645 1 1.07322 1.07322C1 1.14645 1 1.2643 1 1.5Z" fill="#FFC700"/>
<path d="M1 19.5714V1.5C1 1.2643 1 1.14645 1.07322 1.07322C1.14645 1 1.2643 1 1.5 1H22.7654C23.2893 1 23.5512 1 23.6144 1.15615C23.6777 1.31231 23.4896 1.49457 23.1134 1.85909L14.7131 9.99845C14.5738 10.1335 14.5041 10.201 14.5041 10.2857C14.5041 10.3704 14.5738 10.4379 14.7131 10.573L23.1134 18.7123C23.4896 19.0769 23.6777 19.2591 23.6144 19.4153C23.5512 19.5714 23.2893 19.5714 22.7654 19.5714H1ZM1 19.5714V27" stroke="#FFC700" stroke-width="2" stroke-linecap="round"/>
</svg>
